<svg width="400" height="400" viewBox="0 0 400 400" fill="none" xmlns="http://www.w3.org/2000/svg">
<g clip-path="url(#clip0_11_236)">
<path d="M350 50C359.2 50 366.667 57.4667 366.667 66.6667V333.333C366.667 342.533 359.2 350 350 350H49.9999C40.7999 350 33.3333 342.533 33.3333 333.333V66.6667C33.3333 57.4667 40.7999 50 49.9999 50H350ZM333.333 83.3333H192.25C180.75 116.283 175 160.733 175 216.667H225C223.083 232 222.5 247.967 223.217 264.617C243.65 261.1 268.283 251.667 290.333 236.117L309.25 263.867C281.883 282.117 254.2 293.517 226.317 297.917C227.183 304.083 228.2 310.333 229.383 316.667H333.333V83.3333ZM109.25 236.133L90.7499 263.867C126.7 287.833 163.2 300 200 300V266.667C170.133 266.667 139.967 256.617 109.25 236.133ZM283.333 116.667C292.533 116.667 300 124.133 300 133.333V150C300 159.2 292.533 166.667 283.333 166.667C274.133 166.667 266.667 159.2 266.667 150V133.333C266.667 124.133 274.133 116.667 283.333 116.667ZM116.667 116.667C107.467 116.667 99.9999 124.2 99.9999 133.333V150C99.9999 159.2 107.467 166.667 116.667 166.667C125.867 166.667 133.333 159.167 133.333 150V133.333C133.333 124.133 125.867 116.667 116.667 116.667Z" fill="url(#paint0_linear_11_236)"/>
</g>
<defs>
<linearGradient id="paint0_linear_11_236" x1="33" y1="50" x2="367" y2="350" gradientUnits="userSpaceOnUse">
<stop stop-color="#C26E00"/>
<stop offset="1" stop-color="#666666"/>
</linearGradient>
<clipPath id="clip0_11_236">
<rect width="400" height="400" fill="white"/>
</clipPath>
</defs>
</svg>
