<svg width="400" height="400" viewBox="0 0 400 400" fill="none" xmlns="http://www.w3.org/2000/svg">
<path d="M186.537 101C186.225 101.9 184.775 101.762 183.95 102.025C183.212 102.412 182.612 103.087 181.762 103.087C180.987 103.087 179.737 102.775 179.637 102.025C179.487 101 181.012 99.95 181.975 99.95C182.6 99.65 183.325 99.4875 184.087 99.4875C184.787 99.4875 185.45 99.625 186.05 99.8875L186.012 99.875C186.287 99.9875 186.487 100.25 186.487 100.562C186.487 100.6 186.487 100.625 186.475 100.662V100.975H186.525L186.537 101ZM195.137 101V100.662C195.037 100.35 195.337 100.012 195.587 99.8875C196.162 99.6375 196.837 99.4875 197.55 99.4875C198.312 99.4875 199.037 99.6625 199.675 99.9625L199.65 99.95C200.637 99.95 202.15 101 201.987 102.062C201.9 102.825 200.662 103.087 199.875 103.087C199.012 103.087 198.437 102.412 197.675 102.025C196.862 101.737 195.4 101.9 195.125 101.012L195.137 101ZM212.037 125.725C205.387 129.937 197.525 132.9 189.1 134.05L188.8 134.087C181.225 133.65 174.337 130.987 168.712 126.737L168.8 126.8C166.4 124.712 164.425 122.612 162.975 121.562C160.412 119.475 160.725 116.362 161.825 116.362C163.525 116.612 163.837 118.45 164.937 119.487C166.437 120.512 168.3 122.612 170.562 124.687C175.525 128.787 181.8 131.45 188.687 131.975L188.8 131.987C196.975 131.275 204.412 128.65 210.837 124.587L210.637 124.712C213.687 122.6 217.587 119.5 220.762 117.412C223.2 115.287 223.087 113.237 225.125 113.237C227.125 113.487 225.662 115.325 222.825 118.425C219.75 120.775 216.237 123.187 212.6 125.425L212.05 125.737L212.037 125.725ZM100.212 267.462H100.362C101.225 267.462 102.075 267.55 102.9 267.7L102.812 267.688C109.612 269.438 115.212 273.662 118.725 279.325L118.787 279.437L133 305.425L133.05 305.475C138.762 315.137 144.9 323.5 151.762 331.212L151.625 331.05C157.75 337.55 161.875 346 162.987 355.375L163.012 355.575V355.675C162.862 365.887 155.35 374.312 145.562 375.875L145.45 375.887C142.95 376.275 140.05 376.487 137.112 376.487C126.4 376.487 116.375 373.575 107.775 368.487L108.037 368.637C94.8749 363.125 79.5999 359.712 63.5999 359.237H63.4125C58.7625 358.925 54.7125 356.55 52.15 353.037L52.125 353C51.45 350.825 51.0625 348.325 51.0625 345.725C51.0625 341.35 52.1625 337.237 54.1125 333.65L54.0499 333.787V333.725L54.0875 333.675C54.6 331.325 54.9 328.612 54.9 325.837C54.9 322.412 54.45 319.1 53.6 315.95L53.6625 316.213C53.15 314.338 52.85 312.175 52.85 309.937C52.85 306.912 53.3874 304.025 54.3874 301.35L54.3375 301.525C56.8375 296.312 60.525 295.275 65.1125 293.2C70.5875 291.537 75.35 289.025 79.5 285.788L79.4 285.862H79.425V285.825C83.425 281.637 86.375 276.437 89.8625 272.737C92.3 269.625 96.0124 267.612 100.2 267.487H100.225L100.212 267.462ZM269.137 266.7C269.125 266.912 269.125 267.175 269.125 267.437C269.125 276.725 274.737 284.7 282.762 288.162L282.912 288.225C283.512 288.262 284.212 288.287 284.912 288.287C295.3 288.287 304.6 283.65 310.85 276.325L310.887 276.275L314.187 276.125C314.85 276.025 315.612 275.975 316.387 275.975C320.65 275.975 324.537 277.625 327.425 280.325L327.412 280.312L327.462 280.363C330.575 284.125 332.737 288.775 333.55 293.887L333.575 294.05C334.262 300.362 336.55 306.05 340.037 310.8L339.975 310.7C345.175 315.15 348.787 321.325 349.887 328.337L349.912 328.5L349.962 328.387V328.662L349.912 328.475C349.675 332.562 347.025 334.662 342.137 337.775C327.337 343.987 314.625 352.25 303.675 362.375L303.762 362.3C296.162 372.2 285 379.037 272.225 380.875L271.962 380.9C271.037 381.025 269.962 381.1 268.875 381.1C259.275 381.1 251.025 375.3 247.425 367.025L247.362 366.875L247.287 366.825C246.125 363.25 245.462 359.137 245.462 354.875C245.462 349.675 246.45 344.712 248.262 340.15L248.162 340.425C251.087 332.075 253.6 322.1 255.262 311.825L255.4 310.788C255.6 300.638 256.7 290.875 258.625 281.412L258.45 282.45C259.512 275.975 263.212 270.525 268.375 267.137L268.462 267.087L269.162 266.75L269.137 266.7ZM235 126.775C242.5 153.612 251.737 176.8 263.087 198.737L262.1 196.65C269.762 210.275 275.725 226.087 279.137 242.837L279.312 243.887C279.425 243.887 279.562 243.887 279.7 243.887C282.412 243.887 285.037 244.25 287.537 244.937L287.325 244.887C288.7 239.95 289.487 234.287 289.487 228.437C289.487 210.612 282.15 194.487 270.325 182.95L270.312 182.937C266.875 179.812 266.687 177.7 268.387 177.7C280.525 189.075 289.5 203.675 293.95 220.125L294.1 220.762C295.212 224.875 295.85 229.6 295.85 234.475C295.85 238.862 295.337 243.137 294.362 247.225L294.437 246.85C295.362 247.325 296.437 247.687 297.575 247.887L297.65 247.9C313.775 256.238 319.725 262.55 316.862 271.912V271.237C315.925 271.187 314.987 271.237 314.05 271.237H313.8C316.162 263.937 310.962 258.35 297.162 252.112C282.875 245.862 271.45 246.862 269.512 259.375C269.375 259.987 269.275 260.7 269.237 261.438V261.475C268.325 261.85 267.237 262.2 266.112 262.45L265.975 262.475C259.625 266.675 255.1 273.212 253.612 280.837L253.587 281.013C251.737 289.7 250.575 299.763 250.387 310.05V310.2V310.25C249.25 318.212 247.512 325.337 245.162 332.162L245.412 331.337C233.125 341.387 217.275 347.463 199.987 347.463C185.862 347.463 172.687 343.4 161.575 336.375L161.875 336.55C160.05 333.387 157.962 330.65 155.587 328.212L155.6 328.225C154.387 326.225 152.962 324.512 151.325 323.037L151.3 323.025C153.887 323.025 156.387 322.637 158.75 321.925L158.562 321.975C160.812 320.912 162.537 319.075 163.45 316.825L163.475 316.762C163.7 315.6 163.837 314.275 163.837 312.913C163.837 307.35 161.65 302.312 158.075 298.587L158.087 298.6C150.35 289.087 141.1 281.162 130.637 275.1L130.162 274.85C121.775 270 115.425 262.413 112.287 253.325L112.2 253.05C111.037 249.075 110.362 244.5 110.362 239.775C110.362 235.362 110.95 231.087 112.037 227.012L111.962 227.35C116.675 210.925 123.475 196.587 132.212 183.65L131.862 184.187C133.537 183.175 132.437 186.3 125.487 199.4C119.562 208.312 116.025 219.275 116.025 231.062C116.025 241.562 118.825 251.4 123.725 259.887L123.575 259.612C124.225 243.25 127.887 227.9 134 213.875L133.687 214.687C146.875 190.912 156.862 163.3 162.125 134.037L162.375 132.4C163.125 132.962 165.762 134.512 166.887 135.55C170.287 137.625 172.825 140.75 176.1 142.812C179.437 146.062 184.012 148.062 189.037 148.062C189.3 148.062 189.562 148.062 189.825 148.05H189.787C190.4 148.1 190.962 148.15 191.5 148.15C197.237 148.037 202.587 146.5 207.237 143.875L207.075 143.962C211.6 141.875 215.2 138.75 218.637 137.712H218.712C225.4 135.9 231 132.037 234.962 126.85L235.012 126.775H235ZM191.262 93.3125C191.3 93.3125 191.337 93.3125 191.375 93.3125C198.487 93.3125 205.05 95.65 210.337 99.6L210.25 99.5375C214.975 102.462 220.425 104.95 226.187 106.712L226.687 106.837H226.737C229.812 108.212 232.35 110.35 234.162 113.012L234.2 113.075V111.025C234.775 112.175 235.125 113.537 235.125 114.975C235.125 116.2 234.875 117.362 234.437 118.425L234.462 118.362C230.862 124.7 225.025 129.412 218.05 131.462L217.85 131.512V131.537C213.662 133.65 210.025 136.737 205.75 138.8C201.375 141.425 196.112 142.975 190.475 142.975C190.287 142.975 190.1 142.975 189.912 142.975H189.937C189.662 142.987 189.337 143 189.012 143C186.837 143 184.737 142.612 182.812 141.887L182.937 141.925C180.95 140.837 179.312 139.812 177.725 138.712L177.9 138.837C175.062 136.35 171.937 133.962 168.662 131.775L168.337 131.575V131.5H168.262C163.575 129.012 159.887 125.2 157.612 120.55L157.55 120.4C157.212 119.562 157.025 118.587 157.025 117.575C157.025 114.85 158.425 112.45 160.537 111.05L160.562 111.037C164.062 108.925 166.5 106.8 168.112 105.787C169.737 104.637 170.35 104.2 170.862 103.737H170.887V103.687C174.237 99.45 178.675 96.2 183.787 94.3625L183.987 94.3C186.162 93.675 188.662 93.3125 191.25 93.2875L191.262 93.3125ZM169.862 66.6625H170.425C172.775 66.7125 174.937 67.5 176.687 68.7875L176.662 68.7625C178.9 70.75 180.725 73.1625 181.975 75.8875L182.025 76.025C183.437 79.0875 184.312 82.65 184.412 86.4V86.4375V86.5C184.462 87.075 184.487 87.7375 184.487 88.4C184.487 89.1875 184.45 89.975 184.375 90.75L184.387 90.65V91.9C183.925 92.0125 183.512 92.175 183.087 92.275C180.7 93.2625 178.687 94.3125 176.775 95.5L176.95 95.4C177.05 94.7125 177.1 93.925 177.1 93.125C177.1 92.4625 177.062 91.8 176.987 91.15L177 91.225V90.9875C176.775 89.0625 176.325 87.3 175.662 85.6375L175.712 85.775C175.2 84.125 174.3 82.725 173.125 81.6125C172.437 80.9875 171.525 80.6 170.512 80.6C170.425 80.6 170.337 80.6 170.25 80.6125H170.262H169.937C168.65 80.75 167.575 81.55 167.037 82.65L167.025 82.675C166.062 83.8375 165.4 85.275 165.15 86.85V86.9C164.862 87.975 164.712 89.2125 164.712 90.4875C164.712 91.0375 164.737 91.5875 164.8 92.125V92.0625V92.3C165 94.225 165.45 96 166.1 97.65L166.05 97.5125C166.575 99.1625 167.462 100.575 168.637 101.7C168.787 101.85 168.962 101.975 169.162 102.075H169.175C168.137 102.737 167.237 103.437 166.412 104.212L166.425 104.2C165.862 104.7 165.175 105.075 164.412 105.25L164.375 105.262C162.837 103.425 161.412 101.362 160.187 99.1875L160.087 98.9875C158.675 95.925 157.8 92.375 157.662 88.6125V88.5625C157.612 87.9625 157.587 87.2625 157.587 86.55C157.587 83.5375 158.075 80.6375 158.962 77.925L158.912 78.125C159.837 74.9 161.35 72.1125 163.362 69.7375L163.337 69.775C164.925 67.9 167.25 66.7125 169.862 66.65H169.875L169.862 66.6625ZM216.137 65.7375H216.337C216.35 65.7375 216.362 65.7375 216.387 65.7375C219.825 65.7375 222.975 66.9 225.5 68.85L225.462 68.825C228.325 71.0375 230.625 73.825 232.237 77.0125L232.3 77.15C233.812 80.475 234.75 84.3375 234.887 88.4125V88.4625C234.887 88.15 234.975 87.8375 234.975 87.525V89.1625L234.912 88.8375L234.85 88.4625C234.812 92.4625 233.962 96.2375 232.437 99.675L232.512 99.5C231.737 101.537 230.612 103.287 229.187 104.737C228.812 104.512 228.35 104.3 227.887 104.112L227.812 104.087C226.125 103.562 224.65 102.85 223.312 101.975L223.375 102.012C222.412 101.612 221.262 101.262 220.075 101L219.937 100.975C220.95 100.025 221.887 99.0125 222.75 97.9375L222.8 97.875C223.587 96.025 224.075 93.8875 224.175 91.6375V91.6V91.2875C224.175 91.1875 224.175 91.0875 224.175 90.975C224.175 88.85 223.825 86.8125 223.175 84.9125L223.212 85.05C222.425 83.0625 221.462 81.35 220.312 79.7875L220.362 79.85C219.275 78.75 217.837 78 216.225 77.7875H216.187H215.937C215.925 77.7875 215.9 77.7875 215.887 77.7875C214.237 77.7875 212.762 78.6 211.862 79.8375L211.85 79.85C210.4 81.2625 209.3 83.0125 208.675 84.975L208.65 85.0625C207.862 86.9 207.35 89.0375 207.25 91.2625V91.3V91.6C207.275 93.1 207.387 94.55 207.587 95.9625L207.562 95.775C204.55 94.725 200.725 93.6625 198.075 92.625C197.925 91.7125 197.825 90.6375 197.8 89.5375V89.5V89.1875C197.787 88.9375 197.787 88.65 197.787 88.3625C197.787 84.3125 198.65 80.475 200.212 77.0125L200.137 77.1875C201.462 73.7 203.8 70.8375 206.787 68.9L206.85 68.8625C209.4 66.9125 212.637 65.7375 216.137 65.7375ZM207.875 12.55C205.45 12.55 202.95 12.675 200.375 12.875C134.362 18.075 151.875 87.9625 150.862 111.25C150.237 129.075 144.187 145.362 134.3 158.65L134.462 158.425C116.875 178.45 102.525 201.85 92.575 227.462L92.0374 229.05C88.8125 237.612 86.9374 247.5 86.9374 257.825C86.9374 261.387 87.1625 264.9 87.5875 268.337L87.55 267.925C86.85 268.5 86.2625 269.2 85.85 270L85.8375 270.037C81.775 274.225 78.8125 279.412 75.475 283.137C71.9375 285.85 67.7875 287.987 63.2875 289.312L63.0249 289.375C57.2249 291.112 52.5 294.9 49.5875 299.887L49.5249 300C48.2249 302.65 47.4625 305.762 47.4625 309.062C47.4625 309.187 47.4625 309.3 47.4625 309.425C47.4875 312.4 47.7874 315.275 48.3749 318.075L48.325 317.787C49.025 320.525 49.425 323.675 49.425 326.912C49.425 329.037 49.25 331.125 48.9125 333.162L48.9375 332.937C46.85 336.85 45.6375 341.5 45.6375 346.437C45.6375 349.912 46.2375 353.237 47.35 356.325L47.2875 356.125C50.7 360.975 55.8625 364.4 61.8375 365.487L61.975 365.512C77.9 366.85 92.6125 370.175 106.487 375.262L105.312 374.887C114.037 380.075 124.55 383.137 135.762 383.137C139.437 383.137 143.037 382.812 146.537 382.175L146.175 382.225C154.512 380.337 161.312 374.9 164.975 367.612L165.05 367.45C174.225 367.4 184.262 363.25 200.35 362.237C211.262 361.337 224.937 366.412 240.6 365.362C241.062 367.35 241.675 369.088 242.45 370.725L242.375 370.562L242.425 370.612C247.225 380.662 257.3 387.487 268.975 387.487C269.987 387.487 270.987 387.437 271.975 387.337L271.85 387.35C286.237 385.225 298.587 377.75 307.012 367.062L307.1 366.95C317.637 357.35 329.937 349.437 343.412 343.787L344.25 343.475C349.65 341.087 353.525 336.162 354.375 330.237L354.387 330.15C353.65 321.475 349.487 313.912 343.287 308.7L343.237 308.663V307.15L343.187 307.1C340.512 302.975 338.637 298.075 337.925 292.825L337.9 292.637C337.237 286.225 334.425 280.562 330.212 276.3H330.162C329.237 275.462 328.237 275.25 327.225 274.187C326.4 273.6 325.375 273.237 324.262 273.187C326.7 265.662 328.1 257.012 328.1 248.025C328.1 236.275 325.687 225.087 321.337 214.937L321.55 215.487C312.75 194.587 301.312 176.6 287.4 160.875L287.575 161.087C273.762 147.562 264.725 129.2 263.225 108.75L263.212 108.487C263.625 74.875 266.9 12.6875 207.85 12.6L207.875 12.55Z" fill="url(#paint0_linear_11_224)"/>
<defs>
<linearGradient id="paint0_linear_11_224" x1="72" y1="117.5" x2="354" y2="357.5" gradientUnits="userSpaceOnUse">
<stop stop-color="#C26E00"/>
<stop offset="1" stop-color="#666666"/>
</linearGradient>
</defs>
</svg>
