<svg width="400" height="400" viewBox="0 0 400 400" fill="none" xmlns="http://www.w3.org/2000/svg">
<g clip-path="url(#clip0_11_244)">
<path d="M83.1068 19.2018C83.1068 19.2018 163.047 -30.1138 231.436 29.3199L193.162 178.528C193.162 178.528 150.3 145.071 118.515 148.684C86.7303 152.306 44.8321 169.563 44.8321 169.563L83.1068 19.2018ZM0 346.162C17.6438 335.812 44.1268 330.567 74.638 327.668C105.175 324.777 148.149 356.505 148.149 356.505L186.819 205.715C180.7 200.725 152.245 178.986 116.63 176.096C80.998 173.205 38.0751 195.852 38.0751 195.852L0 346.162ZM168.77 369.786C175.759 372.912 198.688 397.657 236.85 399.854C275.021 402.003 317.117 379.649 317.117 379.649C317.117 379.649 354.607 230.792 355.364 230.216C355.623 230.06 354.892 230.646 354.607 230.792C318.915 246.642 300.695 249.005 274.375 249.718C247.65 250.45 206.845 220.324 206.845 220.324L168.77 369.786ZM251.671 45.0804L213.319 193.42C213.319 193.42 244.476 228.058 288.362 225.188C332.274 222.286 356.097 206.585 361.924 204.367L400 54.7091C400 54.7091 349.428 78.6737 316.359 74.3287C283.275 69.9829 262.696 54.035 251.671 45.0804Z" fill="url(#paint0_linear_11_244)"/>
</g>
<defs>
<linearGradient id="paint0_linear_11_244" x1="58.5" y1="8.5" x2="313" y2="413" gradientUnits="userSpaceOnUse">
<stop stop-color="#C26E00"/>
<stop offset="1" stop-color="#666666"/>
</linearGradient>
<clipPath id="clip0_11_244">
<rect width="400" height="400" fill="white"/>
</clipPath>
</defs>
</svg>
