<svg width="1053" height="1116" viewBox="0 0 1053 1116" fill="none" xmlns="http://www.w3.org/2000/svg">
<path d="M296 666L469.205 766V966L296 1066L122.795 966V766L296 666Z" fill="#929292" fill-opacity="0.09"/>
<path d="M167.5 342L303.899 420V576L167.5 654L31.101 576V420L167.5 342Z" fill="#929292" fill-opacity="0.09"/>
<path d="M758.055 937.366L757.305 937.799L605.75 1025.3L605 1025.73L604.25 1025.3L452.695 937.799L451.945 937.366V760.634L452.695 760.201L604.25 672.701L605 672.268L605.75 672.701L757.305 760.201L758.055 760.634V937.366Z" stroke="#C16E00" stroke-opacity="0.4" stroke-width="3"/>
<path d="M996.055 954.366L995.305 954.799L843.75 1042.3L843 1042.73L842.25 1042.3L690.695 954.799L689.945 954.366V777.634L690.695 777.201L842.25 689.701L843 689.268L843.75 689.701L995.305 777.201L996.055 777.634V954.366Z" stroke="#C16E00" stroke-opacity="0.4" stroke-width="3"/>
<path d="M191.452 749.366L190.702 749.799L125.75 787.299L125 787.732L124.25 787.299L59.2979 749.799L58.5479 749.366V672.634L59.2979 672.201L124.25 634.701L125 634.268L125.75 634.701L190.702 672.201L191.452 672.634V749.366Z" stroke="#C16E00" stroke-width="3"/>
<path d="M141.452 944.366L140.702 944.799L75.75 982.299L75 982.732L74.25 982.299L9.29785 944.799L8.54785 944.366V867.634L9.29785 867.201L74.25 829.701L75 829.268L75.75 829.701L140.702 867.201L141.452 867.634V944.366Z" stroke="#C16E00" stroke-width="3"/>
<path d="M596.452 1037.37L595.702 1037.8L530.75 1075.3L530 1075.73L529.25 1075.3L464.298 1037.8L463.548 1037.37V960.634L464.298 960.201L529.25 922.701L530 922.268L530.75 922.701L595.702 960.201L596.452 960.634V1037.37Z" stroke="#C16E00" stroke-width="3"/>
<path d="M362.433 1061.37L361.672 1061.81L270.739 1113.31L270 1113.72L269.261 1113.31L178.328 1061.81L177.567 1061.37V956.626L178.328 956.194L269.261 904.694L270 904.276L270.739 904.694L361.672 956.194L362.433 956.626V1061.37Z" stroke="#C16E00" stroke-width="3"/>
<path d="M1040.43 159.374L1039.67 159.806L948.739 211.306L948 211.724L947.261 211.306L856.328 159.806L855.567 159.374V54.626L856.328 54.1943L947.261 2.69434L948 2.27637L948.739 2.69434L1039.67 54.1943L1040.43 54.626V159.374Z" stroke="#C16E00" stroke-width="3"/>
<path d="M689.452 173.366L688.702 173.799L623.75 211.299L623 211.732L622.25 211.299L557.298 173.799L556.548 173.366V96.6338L557.298 96.2012L622.25 58.7012L623 58.2676L623.75 58.7012L688.702 96.2012L689.452 96.6338V173.366Z" stroke="#C16E00" stroke-width="3"/>
<path d="M784.452 887.366L783.702 887.799L718.75 925.299L718 925.732L717.25 925.299L652.298 887.799L651.548 887.366V810.634L652.298 810.201L717.25 772.701L718 772.268L718.75 772.701L783.702 810.201L784.452 810.634V887.366Z" stroke="#C16E00" stroke-width="3"/>
<path d="M728 486L792.952 523.5V598.5L728 636L663.048 598.5V523.5L728 486Z" fill="#D9D9D9" fill-opacity="0.1"/>
<path d="M534 210L598.952 247.5V322.5L534 360L469.048 322.5V247.5L534 210Z" fill="#C16E00" fill-opacity="0.1"/>
<path d="M643 627L707.952 664.5V739.5L643 777L578.048 739.5V664.5L643 627Z" fill="#603700"/>
<path d="M808 627L872.952 664.5V739.5L808 777L743.048 739.5V664.5L808 627Z" fill="#C16E00" fill-opacity="0.4"/>
<path d="M710 204L774.952 241.5V316.5L710 354L645.048 316.5V241.5L710 204Z" fill="#5F3600"/>
<path d="M549 489L613.952 526.5V601.5L549 639L484.048 601.5V526.5L549 489Z" fill="#D9D9D9" fill-opacity="0.84"/>
<path d="M803 336L867.952 373.5V448.5L803 486L738.048 448.5V373.5L803 336Z" fill="#D9D9D9" fill-opacity="0.3"/>
<path d="M892 810L956.952 847.5V922.5L892 960L827.048 922.5V847.5L892 810Z" fill="#D9D9D9" fill-opacity="0.3"/>
<path d="M297 636L361.952 673.5V748.5L297 786L232.048 748.5V673.5L297 636Z" fill="#D9D9D9" fill-opacity="0.3"/>
<path d="M952.452 308.366L951.702 308.799L886.75 346.299L886 346.732L885.25 346.299L820.298 308.799L819.548 308.366V231.634L820.298 231.201L885.25 193.701L886 193.268L886.75 193.701L951.702 231.201L952.452 231.634V308.366Z" stroke="#C16E00" stroke-width="3"/>
<path d="M963.452 590.366L962.702 590.799L897.75 628.299L897 628.732L896.25 628.299L831.298 590.799L830.548 590.366V513.634L831.298 513.201L896.25 475.701L897 475.268L897.75 475.701L962.702 513.201L963.452 513.634V590.366Z" stroke="#C16E00" stroke-width="3"/>
<path d="M460.452 887.366L459.702 887.799L394.75 925.299L394 925.732L393.25 925.299L328.298 887.799L327.548 887.366V810.634L328.298 810.201L393.25 772.701L394 772.268L394.75 772.701L459.702 810.201L460.452 810.634V887.366Z" stroke="#C16E00" stroke-width="3"/>
<path d="M535.452 749.366L534.702 749.799L469.75 787.299L469 787.732L468.25 787.299L403.298 749.799L402.548 749.366V672.634L403.298 672.201L468.25 634.701L469 634.268L469.75 634.701L534.702 672.201L535.452 672.634V749.366Z" stroke="#C16E00" stroke-width="3"/>
<path d="M505.452 223.366L504.702 223.799L439.75 261.299L439 261.732L438.25 261.299L373.298 223.799L372.548 223.366V146.634L373.298 146.201L438.25 108.701L439 108.268L439.75 108.701L504.702 146.201L505.452 146.634V223.366Z" stroke="#C16E00" stroke-width="3"/>
<path d="M403.055 509.366L402.305 509.799L250.75 597.299L250 597.732L249.25 597.299L97.6953 509.799L96.9453 509.366V332.634L97.6953 332.201L249.25 244.701L250 244.268L250.75 244.701L402.305 332.201L403.055 332.634V509.366Z" stroke="#C16E00" stroke-width="3"/>
<path d="M600.452 758.366L599.702 758.799L534.75 796.299L534 796.732L533.25 796.299L468.298 758.799L467.548 758.366V681.634L468.298 681.201L533.25 643.701L534 643.268L534.75 643.701L599.702 681.201L600.452 681.634V758.366Z" fill="#6B6B6B" stroke="#C16E00" stroke-width="3"/>
<path d="M440.452 334.789L440.202 334.933L375.25 372.433L375 372.577L374.75 372.433L309.798 334.933L309.548 334.789V259.211L309.798 259.067L374.75 221.567L375 221.423L375.25 221.567L440.202 259.067L440.452 259.211V334.789Z" fill="#6B6B6B" stroke="#C16E00"/>
<path d="M523.952 391.5V466.5L459 504L394.048 466.5V391.5L459 354L523.952 391.5Z" fill="#774400"/>
<path d="M523.952 391.5V466.5L459 504L394.048 466.5V391.5L459 354L523.952 391.5Z" stroke="#C16E00"/>
<path d="M448.952 535.5V610.5L384 648L319.048 610.5V535.5L384 498L448.952 535.5Z" fill="#774400"/>
<path d="M448.952 535.5V610.5L384 648L319.048 610.5V535.5L384 498L448.952 535.5Z" stroke="#C16E00"/>
<path d="M448.952 535.5V610.5L384 648L319.048 610.5V535.5L384 498L448.952 535.5Z" fill="#774400"/>
<path d="M448.952 535.5V610.5L384 648L319.048 610.5V535.5L384 498L448.952 535.5Z" stroke="#C16E00"/>
<path d="M556 771L607.962 801V861L556 891L504.038 861V801L556 771Z" fill="#603700"/>
<path d="M943 351L994.962 381V441L943 471L891.038 441V381L943 351Z" fill="#363636"/>
<path d="M780 90L831.962 120V180L780 210L728.038 180V120L780 90Z" fill="#603700"/>
<path d="M958 642L1009.96 672V732L958 762L906.038 732V672L958 642Z" fill="#603700"/>
<path d="M146.962 151.154L145.962 151.732L94 181.732L93 182.31L92 181.732L40.0381 151.732L39.0381 151.154V88.8457L40.0381 88.2676L92 58.2676L93 57.6904L94 58.2676L145.962 88.2676L146.962 88.8457V151.154Z" stroke="#C16E00" stroke-width="4"/>
<path d="M210 60L261.962 90V150L210 180L158.038 150V90L210 60Z" fill="#2B2B2A"/>
<path d="M153 162L204.962 192V252L153 282L101.038 252V192L153 162Z" fill="#2B2B2A"/>
<path d="M270 159L321.962 189V249L270 279L218.038 249V189L270 159Z" fill="#603700"/>
<path d="M325 60L376.962 90V150L325 180L273.038 150V90L325 60Z" fill="#603700"/>
<path d="M324 384L375.962 414V474L324 504L272.038 474V414L324 384Z" fill="#383838"/>
<path d="M212.5 288L304.732 342V450L212.5 504L120.268 450V342L212.5 288Z" fill="#603700"/>
<path d="M633.5 320L725.732 374V482L633.5 536L541.268 482V374L633.5 320Z" fill="#A96000"/>
<path d="M816.5 504L908.732 558V666L816.5 720L724.268 666V558L816.5 504Z" fill="#929292"/>
<path d="M811.055 552.521L809.305 553.531L657.75 641.031L656 642.041L654.25 641.031L502.695 553.531L500.945 552.521V373.479L502.695 372.469L654.25 284.969L656 283.959L657.75 284.969L809.305 372.469L811.055 373.479V552.521Z" stroke="#C16E00" stroke-width="7"/>
</svg>
