<svg width="1590" height="384" viewBox="0 0 1590 384" fill="none" xmlns="http://www.w3.org/2000/svg">
<path d="M67.4375 289.726C36.1021 280.505 33 277.001 33 250.786V123.296C33 114.236 35.5176 108.477 44.9137 103.766C90.9203 80.2759 136.777 56.4503 182.484 32.2892C189.292 28.1064 198.308 28.2356 204.963 32.6113C250.04 56.4235 295.372 79.9537 340.959 103.202C348.833 106.397 353.605 113.689 352.873 121.404C352.453 168.41 352.453 215.39 352.873 262.344C353.837 270.021 349.249 277.399 341.454 280.706C303.24 299.914 265.43 319.767 227.351 339.498C218.36 319.364 222.316 307.525 240.839 297.74C263.317 285.901 286.471 274.505 308.724 262.102C313.98 259.174 317.606 254.39 318.705 248.934C319.469 211.887 319.11 174.8 319.02 137.753C318.628 135.404 318.027 133.088 317.221 130.826C312.518 132.39 307.91 134.178 303.419 136.182C271.5 152.571 239.85 169.484 207.615 185.39C197.275 190.545 194.128 196.746 194.128 206.974C194.712 256.182 194.397 305.431 194.397 354.84C167.423 349.324 159.915 341.512 159.915 318.881C159.915 275.954 160.365 233.028 159.6 190.021C158.494 180.542 164.421 171.525 174.212 167.793C204.288 153.457 233.286 138.034 262.553 122.773C269.387 119.229 276.04 115.444 283.009 111.659C265.43 94.6652 258.777 93.6182 239.49 103.605C207.615 120.155 175.875 136.907 143.73 152.974C134.902 156.537 129.613 164.763 130.603 173.39C131.142 217.686 130.828 261.981 130.828 306.277V321.176C106.775 317.995 97.604 309.095 97.604 289.283C97.604 244.505 97.8287 199.766 97.604 155.028C96.6204 146.889 101.591 139.106 109.922 135.739C139.369 121.122 168.457 105.82 197.679 90.5175C204.918 86.7725 211.976 82.7457 219.349 78.7188C201.815 61.806 195.207 60.759 175.695 70.8665C145.124 86.692 114.778 103.081 83.802 118.101C71.8433 123.981 66.8081 130.665 67.0778 143.43C68.0219 191.753 67.4375 240.115 67.4375 289.726Z" fill="#C16E00"/>
<path d="M223.89 276.518V212.088C224.261 209.444 225.903 207.076 228.385 205.605C247.627 195.216 267.094 185.229 289.528 173.39V237.82C289.223 240.456 287.667 242.847 285.257 244.384C265.88 254.813 246.368 264.88 223.89 276.518Z" fill="#C16E00"/>
<path d="M519.17 109.199V188.496H624.443V216.523H519.17V330H477.471V78.0957H635.039V109.199H519.17ZM717.412 271.211C717.412 278.958 718.438 285.111 720.488 289.668C722.539 293.997 725.387 297.301 729.033 299.58C732.679 301.631 736.781 302.998 741.338 303.682C746.123 304.365 751.25 304.707 756.719 304.707V330C753.757 330.456 750.68 330.798 747.49 331.025C744.984 331.253 742.021 331.367 738.604 331.367C735.186 331.595 731.768 331.709 728.35 331.709C724.932 331.709 721.514 331.595 718.096 331.367C714.678 331.139 711.602 330.798 708.867 330.342C701.12 328.747 695.081 325.329 690.752 320.088C686.423 314.847 683.118 309.036 680.84 302.656C678.561 296.048 677.08 289.668 676.396 283.516C675.941 277.363 675.713 272.578 675.713 269.16V265.059V64.4238H717.412V271.211ZM881.133 135.176C896.628 135.176 910.299 138.366 922.148 144.746C933.997 150.898 943.682 159.215 951.201 169.697C958.949 179.951 964.417 191.914 967.607 205.586C971.025 219.03 971.709 233.044 969.658 247.627H835.674C835.674 254.919 837.041 261.641 839.775 267.793C842.51 273.945 846.156 279.3 850.713 283.857C855.498 288.187 861.081 291.605 867.461 294.111C874.069 296.618 881.133 297.871 888.652 297.871C891.159 297.871 894.235 297.643 897.881 297.188C901.755 296.504 905.742 295.479 909.844 294.111C914.173 292.516 918.389 290.579 922.49 288.301C926.82 286.022 930.579 283.288 933.77 280.098L948.809 302.998C941.289 312.34 932.516 319.404 922.49 324.189C912.464 328.975 899.704 331.367 884.209 331.367C871.676 331.367 859.941 328.861 849.004 323.848C838.066 318.607 828.724 311.543 820.977 302.656C813.229 293.77 807.077 283.402 802.52 271.553C797.962 259.704 795.684 246.943 795.684 233.271C795.684 219.827 797.962 207.181 802.52 195.332C807.077 183.255 813.115 172.773 820.635 163.887C828.382 155 837.497 148.05 847.979 143.037C858.46 137.796 869.512 135.176 881.133 135.176ZM931.377 217.549C931.377 211.396 930.238 205.358 927.959 199.434C925.68 193.509 922.49 188.154 918.389 183.369C914.515 178.584 909.73 174.824 904.033 172.09C898.337 169.128 892.184 167.533 885.576 167.305C878.512 167.305 872.018 168.672 866.094 171.406C860.169 174.141 855.042 177.786 850.713 182.344C846.383 186.901 842.965 192.37 840.459 198.75C838.18 204.902 837.041 211.169 837.041 217.549H931.377ZM1167.22 270.186V272.92C1167.22 274.743 1167.33 277.477 1167.56 281.123C1167.79 284.541 1168.24 288.073 1168.93 291.719C1169.61 295.365 1170.63 298.669 1172 301.631C1173.6 304.593 1175.65 306.53 1178.15 307.441L1167.22 330.342C1164.25 330.342 1161.06 329.658 1157.65 328.291C1154.46 326.924 1151.27 324.987 1148.08 322.48C1145.11 319.974 1142.49 317.24 1140.21 314.277C1138.16 311.087 1136.57 307.669 1135.43 304.023C1133.83 307.897 1130.99 311.543 1126.88 314.961C1123.01 318.151 1118.57 321.113 1113.55 323.848C1108.54 326.354 1103.07 328.291 1097.15 329.658C1091.45 331.025 1086.1 331.709 1081.08 331.709C1073.34 331.709 1065.82 330.684 1058.53 328.633C1051.46 326.582 1045.2 323.278 1039.73 318.721C1034.26 314.163 1029.93 308.125 1026.74 300.605C1023.78 293.086 1022.29 283.857 1022.29 272.92C1022.29 262.438 1024.46 253.438 1028.79 245.918C1033.35 238.171 1039.04 231.904 1045.88 227.119C1052.94 222.106 1060.92 218.46 1069.8 216.182C1078.69 213.675 1087.69 212.422 1096.81 212.422H1125.86C1125.86 201.257 1125.29 192.37 1124.15 185.762C1123.01 179.154 1121.07 174.368 1118.34 171.406C1115.61 168.216 1112.19 166.279 1108.09 165.596C1104.21 164.684 1099.54 164.229 1094.07 164.229C1089.06 164.229 1084.27 164.912 1079.72 166.279C1075.39 167.419 1071.29 168.9 1067.41 170.723C1063.77 172.318 1060.46 174.141 1057.5 176.191C1054.77 178.242 1052.71 179.837 1051.35 180.977L1035.97 157.393C1038.25 154.886 1041.66 152.38 1046.22 149.873C1050.78 147.139 1056.02 144.746 1061.94 142.695C1067.87 140.645 1074.25 139.049 1081.08 137.91C1088.15 136.543 1095.44 135.859 1102.96 135.859C1109.79 135.859 1116.4 136.543 1122.78 137.91C1129.39 139.277 1135.32 141.556 1140.56 144.746C1146.03 147.936 1150.7 152.266 1154.57 157.734C1158.67 162.975 1161.52 169.583 1163.12 177.559C1164.71 185.534 1165.74 193.623 1166.19 201.826C1166.88 209.801 1167.22 217.777 1167.22 225.752V270.186ZM1126.2 236.689H1104.33C1099.77 236.689 1094.98 237.145 1089.97 238.057C1084.96 238.968 1080.29 240.677 1075.96 243.184C1071.63 245.69 1067.98 249.336 1065.02 254.121C1062.29 258.678 1060.92 264.603 1060.92 271.895C1060.92 283.288 1063.42 291.491 1068.44 296.504C1073.68 301.517 1081.2 304.023 1091 304.023C1097.83 304.023 1104.33 302.201 1110.48 298.555C1116.86 294.909 1122.1 290.01 1126.2 283.857V236.689ZM1340.85 178.926C1334.47 177.103 1326.72 176.077 1317.61 175.85C1309.4 175.85 1301.2 176.875 1293 178.926C1285.02 180.749 1278.64 183.939 1273.86 188.496V261.641V262.324V330H1232.5V137.227H1269.41L1273.86 157.051C1277.28 153.633 1280.81 150.557 1284.45 147.822C1288.33 145.088 1292.77 142.923 1297.78 141.328C1302.8 139.505 1308.72 138.138 1315.56 137.227C1322.39 136.315 1330.82 135.859 1340.85 135.859V178.926ZM1465.61 135.176C1481.1 135.176 1494.77 138.366 1506.62 144.746C1518.47 150.898 1528.15 159.215 1535.67 169.697C1543.42 179.951 1548.89 191.914 1552.08 205.586C1555.5 219.03 1556.18 233.044 1554.13 247.627H1420.15C1420.15 254.919 1421.51 261.641 1424.25 267.793C1426.98 273.945 1430.63 279.3 1435.19 283.857C1439.97 288.187 1445.55 291.605 1451.93 294.111C1458.54 296.618 1465.61 297.871 1473.12 297.871C1475.63 297.871 1478.71 297.643 1482.35 297.188C1486.23 296.504 1490.21 295.479 1494.32 294.111C1498.65 292.516 1502.86 290.579 1506.96 288.301C1511.29 286.022 1515.05 283.288 1518.24 280.098L1533.28 302.998C1525.76 312.34 1516.99 319.404 1506.96 324.189C1496.94 328.975 1484.18 331.367 1468.68 331.367C1456.15 331.367 1444.41 328.861 1433.48 323.848C1422.54 318.607 1413.2 311.543 1405.45 302.656C1397.7 293.77 1391.55 283.402 1386.99 271.553C1382.43 259.704 1380.16 246.943 1380.16 233.271C1380.16 219.827 1382.43 207.181 1386.99 195.332C1391.55 183.255 1397.59 172.773 1405.11 163.887C1412.85 155 1421.97 148.05 1432.45 143.037C1442.93 137.796 1453.98 135.176 1465.61 135.176ZM1515.85 217.549C1515.85 211.396 1514.71 205.358 1512.43 199.434C1510.15 193.509 1506.96 188.154 1502.86 183.369C1498.99 178.584 1494.2 174.824 1488.51 172.09C1482.81 169.128 1476.66 167.533 1470.05 167.305C1462.99 167.305 1456.49 168.672 1450.57 171.406C1444.64 174.141 1439.51 177.786 1435.19 182.344C1430.86 186.901 1427.44 192.37 1424.93 198.75C1422.65 204.902 1421.51 211.169 1421.51 217.549H1515.85Z" fill="#C16E00"/>
</svg>
