<svg width="200" height="200" viewBox="0 0 200 200" fill="none" xmlns="http://www.w3.org/2000/svg">
<path d="M32.2526 154.3C15.3456 149.156 13.6719 147.202 13.6719 132.577V61.4554C13.6719 56.401 15.0303 53.1886 20.0999 50.5603C44.9228 37.4561 69.6648 24.1647 94.3259 10.6862C97.9991 8.35278 102.864 8.42486 106.454 10.8659C130.776 24.1498 155.235 37.2764 179.831 50.2458C184.08 52.0283 186.655 56.0959 186.259 60.3996C186.033 86.6229 186.033 112.831 186.259 139.025C186.78 143.308 184.304 147.423 180.098 149.268C159.48 159.984 139.08 171.059 118.534 182.066C113.683 170.834 115.818 164.229 125.811 158.771C137.94 152.166 150.432 145.809 162.439 138.89C165.275 137.256 167.231 134.587 167.824 131.544C168.237 110.877 168.043 90.1872 167.994 69.5201C167.783 68.2102 167.458 66.918 167.024 65.6562C164.486 66.5286 162 67.526 159.577 68.644C142.355 77.787 125.278 87.222 107.886 96.0953C102.306 98.9708 100.608 102.43 100.608 108.136C100.924 135.588 100.754 163.061 100.754 190.625C86.1999 187.547 82.149 183.189 82.149 170.564C82.149 146.618 82.3916 122.671 81.9792 98.6787C81.3822 93.3907 84.5801 88.3606 89.8627 86.2785C106.091 78.2812 121.736 69.6774 137.527 61.1634C141.214 59.1865 144.804 57.0749 148.564 54.9633C139.08 45.4833 135.49 44.8993 125.084 50.4704C107.886 59.7032 90.7602 69.0484 73.4165 78.0116C68.6532 79.999 65.7993 84.588 66.3335 89.401C66.6246 114.112 66.4548 138.822 66.4548 163.533V171.845C53.4774 170.07 48.529 165.106 48.529 154.053C48.529 129.073 48.6503 104.115 48.529 79.1573C47.9983 74.6167 50.6801 70.2749 55.1754 68.3969C71.0636 60.2424 86.7578 51.7059 102.525 43.1695C106.43 41.0803 110.238 38.8339 114.217 36.5875C104.756 27.1525 101.191 26.5684 90.6632 32.2069C74.1685 41.0354 57.7951 50.1784 41.0821 58.5575C34.6298 61.8373 31.913 65.5664 32.0586 72.6876C32.568 99.6447 32.2526 126.624 32.2526 154.3Z" fill="#C16E00"/>
<path d="M116.667 146.932V110.989C116.867 109.514 117.753 108.193 119.092 107.372C129.474 101.577 139.977 96.0055 152.082 89.401V125.344C151.917 126.814 151.078 128.148 149.777 129.006C139.322 134.824 128.795 140.44 116.667 146.932Z" fill="#C16E00"/>
</svg>
