<svg width="512" height="512" viewBox="0 0 512 512" fill="none" xmlns="http://www.w3.org/2000/svg">
<path d="M82.5667 395.009C39.2847 381.839 35 376.836 35 339.398V157.326C35 144.386 38.4775 136.163 51.4559 129.434C115.002 95.8876 178.342 61.8617 241.474 27.3566C250.878 21.3831 263.331 21.5676 272.523 27.8167C334.786 61.8234 397.401 95.4275 460.368 128.629C471.244 133.193 477.836 143.605 476.824 154.623C476.245 221.755 476.245 288.848 476.824 355.903C478.157 366.867 471.819 377.404 461.051 382.127C408.269 409.558 356.044 437.91 303.448 466.089C291.028 437.335 296.493 420.428 322.077 406.453C353.126 389.545 385.106 373.271 415.844 355.558C423.103 351.376 428.112 344.544 429.63 336.753C430.686 283.845 430.189 230.879 430.065 177.971C429.524 174.618 428.694 171.31 427.581 168.08C421.084 170.313 414.72 172.866 408.517 175.729C364.428 199.135 320.711 223.288 276.187 246.004C261.905 253.365 257.558 262.221 257.558 276.829C258.365 347.104 257.93 417.437 257.93 488C220.672 480.121 210.301 468.965 210.301 436.645C210.301 375.341 210.922 314.037 209.867 252.618C208.338 239.08 216.525 226.203 230.048 220.873C271.592 200.4 311.645 178.374 352.07 156.578C361.509 151.518 370.699 146.112 380.325 140.706C356.044 116.437 346.854 114.942 320.214 129.204C276.187 152.84 232.346 176.764 187.946 199.71C175.752 204.797 168.446 216.545 169.814 228.867C170.559 292.126 170.124 355.385 170.124 418.645V439.923C136.902 435.38 124.234 422.67 124.234 394.376C124.234 330.427 124.545 266.535 124.234 202.643C122.876 191.019 129.741 179.904 141.249 175.096C181.923 154.22 222.1 132.367 262.463 110.514C272.461 105.166 282.21 99.4148 292.394 93.6639C268.176 69.5104 259.048 68.0151 232.098 82.4498C189.871 105.051 147.955 128.457 105.17 149.907C88.6523 158.304 81.6974 167.85 82.07 186.08C83.374 255.09 82.5667 324.158 82.5667 395.009Z" fill="#C16E00"/>
<path d="M298.666 376.146V284.132C299.179 280.355 301.447 276.973 304.876 274.873C331.454 260.036 358.342 245.774 389.329 228.867V320.88C388.908 324.645 386.759 328.06 383.429 330.254C356.665 345.149 329.715 359.526 298.666 376.146Z" fill="#C16E00"/>
</svg>
